<svg width="19" height="19" viewBox="0 0 19 19" fill="none" xmlns="http://www.w3.org/2000/svg">
<path d="M15.3747 7.70719L18.1066 5.13562L18.1225 5.12062C18.6852 4.55795 19.0013 3.7948 19.0013 2.99906C19.0013 2.20332 18.6852 1.44017 18.1225 0.877498C17.5598 0.314825 16.7967 -0.00128174 16.0009 -0.00128174C15.2052 -0.00128174 14.4421 0.314825 13.8794 0.877498L13.8644 0.893436L11.2928 3.62531L3.51157 0.794061C3.37746 0.745282 3.23221 0.735779 3.09289 0.766666C2.95356 0.797554 2.82594 0.86755 2.72501 0.968436L0.475007 3.21844C0.396603 3.2969 0.33658 3.39178 0.299263 3.49624C0.261946 3.6007 0.248265 3.71214 0.259205 3.82252C0.270144 3.93291 0.305433 4.03949 0.362527 4.13459C0.419622 4.22969 0.497101 4.31095 0.589382 4.3725L6.57907 8.36531L5.18969 9.75H3.25001C3.05136 9.75009 2.86086 9.82899 2.72032 9.96937L0.470319 12.2194C0.382571 12.3069 0.317884 12.4148 0.282043 12.5335C0.246201 12.6521 0.240323 12.7778 0.264934 12.8993C0.289545 13.0208 0.343878 13.1342 0.423073 13.2296C0.502268 13.3249 0.603858 13.3991 0.718757 13.4456L4.17063 14.8266L5.54876 18.2719L5.55438 18.2869C5.60206 18.4023 5.67779 18.504 5.77471 18.5827C5.87164 18.6614 5.98668 18.7147 6.10941 18.7377C6.23214 18.7607 6.35867 18.7527 6.47752 18.7144C6.59637 18.6761 6.70378 18.6087 6.79001 18.5184L9.02782 16.2797C9.09784 16.2103 9.15351 16.1278 9.19163 16.037C9.22976 15.9461 9.24959 15.8486 9.25001 15.75V13.8103L10.6338 12.4266L14.6266 18.4162C14.6881 18.5085 14.7694 18.586 14.8645 18.6431C14.9596 18.7002 15.0662 18.7355 15.1765 18.7464C15.2869 18.7574 15.3984 18.7437 15.5028 18.7064C15.6073 18.6691 15.7022 18.609 15.7806 18.5306L18.0306 16.2806C18.1315 16.1797 18.2015 16.0521 18.2324 15.9127C18.2633 15.7734 18.2538 15.6282 18.205 15.4941L15.3747 7.70719ZM15.3681 16.8225L11.3753 10.8328C11.314 10.74 11.2328 10.662 11.1376 10.6044C11.0425 10.5469 10.9357 10.5112 10.825 10.5C10.8003 10.4986 10.7756 10.4986 10.7509 10.5C10.6524 10.4999 10.5549 10.5193 10.4638 10.5569C10.3728 10.5945 10.29 10.6497 10.2203 10.7194L7.97032 12.9694C7.90052 13.039 7.84514 13.1217 7.80734 13.2128C7.76953 13.3038 7.75005 13.4014 7.75001 13.5V15.4397L6.52469 16.665L5.44657 13.9687C5.40885 13.8751 5.35262 13.7901 5.28126 13.7187C5.2099 13.6474 5.12486 13.5912 5.03126 13.5534L2.33688 12.4753L3.56126 11.25H5.50001C5.59853 11.2501 5.6961 11.2307 5.78714 11.1931C5.87819 11.1555 5.96093 11.1002 6.03063 11.0306L8.28063 8.78062C8.35921 8.70215 8.41938 8.60721 8.45679 8.50266C8.49421 8.3981 8.50795 8.28654 8.497 8.17603C8.48606 8.06553 8.45071 7.95883 8.39352 7.86364C8.33632 7.76846 8.2587 7.68716 8.16626 7.62562L2.17751 3.63187L3.44313 2.36719L11.245 5.20406C11.3825 5.25457 11.5317 5.26373 11.6743 5.23041C11.8169 5.19709 11.9467 5.12275 12.0475 5.01656L14.9481 1.93406C15.233 1.67316 15.6075 1.5322 15.9937 1.54054C16.3798 1.54888 16.7479 1.70588 17.0212 1.97883C17.2946 2.25178 17.452 2.61965 17.4609 3.00582C17.4697 3.39199 17.3293 3.76668 17.0688 4.05187L13.9872 6.9525C13.881 7.05335 13.8067 7.18308 13.7733 7.32569C13.74 7.4683 13.7492 7.61754 13.7997 7.755L16.6366 15.5569L15.3681 16.8225Z" fill="#EF5F4C"/>
</svg>
